<svg fill="none" height="200" viewBox="0 0 600 200" width="600" xmlns="http://www.w3.org/2000/svg" xmlns:xlink="http://www.w3.org/1999/xlink"><linearGradient id="a" gradientUnits="userSpaceOnUse" x1="100" x2="100" y1="40" y2="160"><stop offset="0" stop-color="#0b0"/><stop offset="1" stop-color="#0b0"/></linearGradient><path d="m198.792 126h8.856v-42.192h16.056v-8.208h-40.968v8.208h16.056zm38.824.864c6.984 0 11.952-2.808 15.552-7.128l-5.112-4.536c-3.024 2.952-6.048 4.536-10.296 4.536-5.616 0-10.008-3.456-10.944-9.648h27.936c.072-.864.144-1.656.144-2.448 0-10.944-6.12-20.448-18.216-20.448-10.872 0-18.576 8.928-18.576 19.8v.144c0 11.736 8.496 19.728 19.512 19.728zm-10.872-22.536c.792-5.904 4.536-10.008 9.864-10.008 5.76 0 9.072 4.392 9.648 10.008zm33.229 21.672h8.784v-21.456c0-5.904 3.528-9.432 8.568-9.432 5.184 0 8.136 3.384 8.136 9.288v21.6h8.712v-24.264c0-8.784-4.968-14.544-13.536-14.544-5.904 0-9.432 3.096-11.88 6.624v-5.832h-8.784zm56.817.792c6.192 0 10.152-3.168 12.96-7.128v6.336h8.712v-52.56h-8.712v20.448c-2.736-3.6-6.696-6.696-12.96-6.696-9.072 0-17.64 7.128-17.64 19.728v.144c0 12.6 8.712 19.728 17.64 19.728zm2.088-7.56c-5.904 0-10.944-4.824-10.944-12.168v-.144c0-7.488 4.968-12.168 10.944-12.168 5.832 0 11.016 4.824 11.016 12.168v.144c0 7.272-5.184 12.168-11.016 12.168zm44.345 7.632c6.984 0 11.952-2.808 15.552-7.128l-5.112-4.536c-3.024 2.952-6.048 4.536-10.296 4.536-5.616 0-10.008-3.456-10.944-9.648h27.936c.072-.864.144-1.656.144-2.448 0-10.944-6.12-20.448-18.216-20.448-10.872 0-18.576 8.928-18.576 19.8v.144c0 11.736 8.496 19.728 19.512 19.728zm-10.872-22.536c.792-5.904 4.536-10.008 9.864-10.008 5.76 0 9.072 4.392 9.648 10.008zm33.229 21.672h8.784v-14.472c0-10.08 5.328-15.048 12.96-15.048h.504v-9.216c-6.696-.288-11.088 3.6-13.464 9.288v-8.568h-8.784zm26.142 0h8.784v-21.456c0-5.832 3.312-9.432 8.136-9.432s7.704 3.312 7.704 9.216v21.672h8.712v-21.456c0-6.12 3.384-9.432 8.136-9.432 4.896 0 7.704 3.24 7.704 9.288v21.6h8.712v-24.264c0-9.288-5.04-14.544-13.32-14.544-5.76 0-9.792 2.664-12.816 6.696-2.016-4.032-5.904-6.696-11.376-6.696-5.832 0-9.144 3.168-11.592 6.552v-5.76h-8.784zm64.96-43.848h9.36v-8.28h-9.36zm.288 43.848h8.784v-38.016h-8.784zm16.497 0h8.784v-21.456c0-5.904 3.528-9.432 8.568-9.432 5.184 0 8.136 3.384 8.136 9.288v21.6h8.712v-24.264c0-8.784-4.968-14.544-13.536-14.544-5.904 0-9.432 3.096-11.88 6.624v-5.832h-8.784zm53.865.648c3.312 0 5.688-.72 7.848-1.944v-7.128c-1.728.864-3.456 1.296-5.4 1.296-2.952 0-4.68-1.368-4.68-4.752v-18.648h10.224v-7.488h-10.224v-10.44h-8.712v10.44h-4.824v7.488h4.824v20.016c0 8.352 4.536 11.16 10.944 11.16z" fill="#000"/><circle cx="100" cy="100" fill="url(#a)" r="60"/><g clip-rule="evenodd" fill="#fff" fill-rule="evenodd"><path d="m112.786 86.8957c-4.02-1.585-8.35-2.4129-12.723-2.4129-9.1912 0-17.8364 3.6084-24.3429 10.1602-6.4784 6.523-10.0776 15.188-10.1355 24.398l-.0077 1.237 1.0747.611c5.1797 2.947 11.0373 4.498 16.9729 4.498.1632 0 .3277-.001.4913-.004 5.1741-.074 10.293-1.318 14.9335-3.615-1.4632-.818-2.8655-1.74-4.1985-2.756-8.0887 3.186-17.2559 2.794-25.014-1.198.7547-16.162 14.0617-29.1091 30.2262-29.1091 4.496 0 8.936.9945 12.947 2.8843.052-1.5647-.023-3.133-.224-4.6935z"/><path d="m134.541 118.754c-.123-11.451-5.699-21.8983-14.994-28.2625.007 1.6757-.105 3.3503-.335 5.015 6.604 5.3925 10.631 13.3335 11.071 22.0335-14.247 7.342-32.0143 2.2-40.1078-11.828-2.186-3.789-3.5263-8.0261-3.9202-12.3552-1.3751.7499-2.6883 1.6125-3.9282 2.5798.6538 4.1664 2.0745 8.2114 4.1945 11.8864 4.604 7.98 12.0057 13.701 20.8407 16.109 2.998.817 6.046 1.222 9.077 1.222 5.906 0 11.748-1.535 17.035-4.542l1.08-.614z"/><path d="m101.282 60.6251-1.066-.6251-1.066.6241c-5.2659 3.0818-9.6409 7.5003-12.6522 12.7774-2.6002 4.5574-4.1383 9.6625-4.499 14.8736 1.4416-.8569 2.9434-1.6104 4.4962-2.2542 1.3376-8.5904 6.3331-16.3541 13.719-21.0985 13.565 8.7222 18.026 26.8066 9.878 40.9296-2.206 3.825-5.224 7.132-8.798 9.671 1.335.814 2.737 1.521 4.194 2.112 3.304-2.679 6.117-5.961 8.258-9.672 9.513-16.4892 3.922-37.7249-12.464-47.3379z"/><path d="m100.195 96.6558c-1.9437 0-3.5245 1.5821-3.5245 3.5272 0 1.944 1.5808 3.526 3.5245 3.526 1.943 0 3.524-1.582 3.524-3.526 0-1.9451-1.581-3.5272-3.524-3.5272zm0 11.2762c-4.2701 0-7.7435-3.476-7.7435-7.749 0-4.2732 3.4734-7.7494 7.7435-7.7494 4.27 0 7.743 3.4762 7.743 7.7494 0 4.273-3.473 7.749-7.743 7.749z"/></g></svg>